<?xml version="1.0" encoding="UTF-8"?><svg id="a" xmlns="http://www.w3.org/2000/svg" viewBox="0 0 512 512"><defs><style>.b{fill:#0080ff;}</style></defs><path class="b" d="M485.08,180.396c-14.417-24.745-37.051-44.932-54.676-66.757-22.258-27.189-34.48-63.188-66.614-80.445C290.942,1.144,199.505,25.089,134.965,66.277,65.061,112.721,1.856,190.457.136,277.932v-.003l-.011.561c-4.48,129.007,112.076,218.483,235.075,215.057,120.558-.053,260.502-74.686,275.887-203.618,4.097-38.039-5.784-76.897-26.008-109.533h0ZM235.001,429.31l.003-.003h-.57c-71.472,1.605-151.174-41.651-167.501-114.507-13.1-63.85,23.254-131.671,72.356-171.677,78.337-62.654,196.444-33.936,262.781,33.125,122.486,128.761-29.945,254.861-167.069,253.062h0Z"/><path class="b" d="M270.18,174.991c-2.228-14.268-14.422-25.241-29.274-23.013h-.003l-.452.053c-20.804,3.073-42.574,22.008-55.381,41.061-15.542,25.048-27.5,53.074-32.341,81.68-5.593,32.707,16.443,54.819,46.598,36.95,21.72-13.393,27.156-37.461,40.489-61.002,13.412-25.778,34.546-48.153,30.362-75.73h0Z"/><path class="b" d="M325.443,199.941c-36.888,9.609-78.576,73.038-71.565,110.651,2.082,9.17,6.207,15.204,11.519,18.747,15.716,10.483,28.766,3.962,39.252-8.023,10.085-11.526,12.175-17.98,17.289-27.373,11.052-20.303,39.89-51.542,39.533-67.171l-.048-.519c-1.159-19.628-17.647-31.497-35.981-26.311h0Z"/></svg>