<?xml version="1.0" encoding="UTF-8"?><svg id="LOGO" xmlns="http://www.w3.org/2000/svg" viewBox="0 0 512 136.262"><defs><style>.cls-1{fill:#fff;}</style></defs><g id="STUDIOS"><path class="cls-1" d="M504.732,121.728h0s-9.869,0-9.869,0h0c-1.435,0-2.602-1.168-2.602-2.602s1.167-2.602,2.602-2.602v-.005h14.746c.019,0,.037.006.057.006,1.288,0,2.333-1.044,2.333-2.333s-1.044-2.333-2.333-2.333c-.003,0-.006,0-.009,0h0s-14.803,0-14.803,0h0c-4.003.005-7.258,3.263-7.258,7.267s3.25,7.256,7.249,7.266h0s9.887.001,9.887.001h0c1.435,0,2.602,1.167,2.602,2.602s-1.167,2.602-2.601,2.602h0s-14.803,0-14.803,0c0,0,0,0,0,0-1.288,0-2.333,1.044-2.333,2.333s1.044,2.333,2.333,2.333c0,0,0,0,0,0h0s14.803,0,14.803,0h0c4.007,0,7.267-3.26,7.267-7.267s-3.26-7.267-7.268-7.267Z"/><path class="cls-1" d="M418.532,136.262c-6.728,0-12.202-5.474-12.202-12.202s5.473-12.202,12.202-12.202,12.201,5.474,12.201,12.202-5.473,12.202-12.201,12.202ZM418.532,116.524c-4.156,0-7.537,3.381-7.537,7.536s3.381,7.536,7.537,7.536,7.536-3.381,7.536-7.536-3.381-7.536-7.536-7.536Z"/><path class="cls-1" d="M339.598,114.186c-.003-1.286-1.046-2.327-2.332-2.327s-2.329,1.042-2.332,2.327h0v19.738h0s0,.003,0,.005c0,1.288,1.044,2.333,2.333,2.333s2.333-1.044,2.333-2.333c0-.002,0-.003,0-.005h0v-19.738h0Z"/><path class="cls-1" d="M256,111.859h-9.869c-1.288,0-2.333,1.044-2.333,2.333s1.044,2.333,2.333,2.333h9.869c4.155,0,7.536,3.38,7.536,7.536s-3.381,7.536-7.536,7.537h0s-9.869,0-9.869,0h0c-1.288,0-2.333,1.044-2.333,2.333s1.044,2.333,2.333,2.333h9.869c6.728,0,12.202-5.473,12.202-12.202s-5.473-12.201-12.202-12.201Z"/><path class="cls-1" d="M186.937,124.062v-9.87h-.001c0-1.288-1.044-2.333-2.333-2.333s-2.333,1.044-2.333,2.333c0,.003,0,.005,0,.007v9.862h0c0,4.156-3.381,7.536-7.536,7.536s-7.536-3.381-7.536-7.536h0v-9.862s0-.005,0-.007c0-1.288-1.044-2.333-2.333-2.333s-2.333,1.044-2.333,2.333h0s-.001,0-.001,0v9.87h.001c0,6.727,5.474,12.201,12.201,12.201s12.201-5.473,12.202-12.201h.001Z"/><path class="cls-1" d="M105.669,114.192c0-1.288-1.044-2.333-2.333-2.333h-19.738c-1.288,0-2.333,1.044-2.333,2.333s1.044,2.333,2.333,2.333h0s7.452,0,7.452,0v17.405h0c0,1.288,1.044,2.333,2.333,2.333s2.333-1.044,2.333-2.333h0v-17.405h7.62c1.288,0,2.333-1.044,2.333-2.333Z"/><path class="cls-1" d="M17.136,121.728h0s-9.869,0-9.869,0h0c-1.435,0-2.602-1.168-2.602-2.602s1.167-2.602,2.602-2.602v-.005h14.746c.019,0,.037.006.057.006,1.288,0,2.333-1.044,2.333-2.333s-1.044-2.333-2.333-2.333c-.003,0-.006,0-.009,0h0s-14.803,0-14.803,0h0c-4.003.005-7.258,3.263-7.258,7.267s3.25,7.256,7.249,7.266h0s9.887.001,9.887.001h0c1.435,0,2.602,1.167,2.602,2.602s-1.166,2.6-2.599,2.602H2.34s-.005,0-.007,0c-1.288,0-2.333,1.044-2.333,2.333s1.044,2.333,2.333,2.333c.003,0,.005,0,.007,0h0s14.803,0,14.803,0h0c4.004-.004,7.26-3.262,7.26-7.267s-3.26-7.267-7.267-7.267Z"/></g><g id="FOCUS_FLAT"><path class="cls-1" d="M471,0c-22.644,0-41,18.356-41,41s18.356,41,41,41,41-18.356,41-41S493.644,0,471,0ZM460.89,36.22h0s20.22,0,20.22,0h0c8.21,0,14.89,6.68,14.89,14.89s-6.669,14.878-14.87,14.889h0s-.019,0-.019,0c0,0,0,0-.001,0h0s-30.31,0-30.31,0v-.002c-.007,0-.013.002-.02.002-2.64,0-4.78-2.14-4.78-4.78s2.14-4.78,4.78-4.78c.007,0,.013.002.02.002v-.002h30.317c2.936-.004,5.324-2.394,5.324-5.331s-2.392-5.33-5.331-5.33h0s-20.257,0-20.257,0v-.003c-8.193-.02-14.853-6.69-14.853-14.888s6.67-14.878,14.872-14.888h0s.018,0,.018,0h30.312v.002c.006,0,.012-.002.019-.002,2.64,0,4.78,2.14,4.78,4.78s-2.14,4.78-4.78,4.78c-.04,0-.077-.011-.116-.012h-30.214v.011c-2.939,0-5.33,2.391-5.33,5.33s2.391,5.331,5.33,5.331Z"/><path class="cls-1" d="M363.5,0c-22.644,0-41,18.356-41,41s18.356,41,41,41,41-18.356,41-41S386.144,0,363.5,0ZM388.5,25.558v20.3h-.002c-.043,13.748-11.239,24.92-24.998,24.92s-24.955-11.172-24.998-24.92h-.002v-20.3h0c0-2.64,2.14-4.78,4.78-4.78s4.78,2.14,4.78,4.78h0v20.221h0s0,0,0,0c0,8.514,6.927,15.441,15.44,15.441s15.441-6.927,15.441-15.441h0v-20.221h0c0-2.64,2.14-4.78,4.78-4.78s4.78,2.14,4.78,4.78h0Z"/><path class="cls-1" d="M256,0c-22.644,0-41,18.356-41,41s18.356,41,41,41,41-18.356,41-41S278.644,0,256,0ZM253.75,56.441h0s20.221,0,20.221,0h0c2.64,0,4.78,2.14,4.78,4.78s-2.14,4.78-4.78,4.78h-20.3v-.002c-13.748-.043-24.92-11.239-24.92-24.998s11.172-24.955,24.92-24.998v-.002h20.3c2.64,0,4.78,2.14,4.78,4.78s-2.14,4.78-4.78,4.78h-20.221c-8.514,0-15.441,6.927-15.441,15.44s6.927,15.441,15.441,15.441Z"/><path class="cls-1" d="M148.282,25.559c-8.514,0-15.442,6.927-15.442,15.441s6.928,15.441,15.442,15.441,15.441-6.927,15.441-15.441-6.927-15.441-15.441-15.441Z"/><path class="cls-1" d="M148.5,0c-22.644,0-41,18.356-41,41s18.356,41,41,41,41-18.356,41-41S171.144,0,148.5,0ZM148.282,66c-13.786,0-25-11.215-25-25s11.215-25,25-25,25,11.215,25,25-11.215,25-25,25Z"/><path class="cls-1" d="M41,0C18.356,0,0,18.356,0,41s18.356,41,41,41,41-18.356,41-41S63.644,0,41,0ZM30.909,36.22h0s30.312,0,30.312,0v.002c.006,0,.012-.002.019-.002,2.64,0,4.78,2.14,4.78,4.78s-2.14,4.78-4.78,4.78c-.04,0-.077-.011-.117-.012h-30.214v.01c-1.88,0-3.673-.365-5.331-1.003v16.445s0,0,0,0c0,2.64-2.14,4.78-4.78,4.78s-4.78-2.14-4.78-4.78v-30h.017c-.003-.111-.017-.22-.017-.332,0-8.204,6.67-14.878,14.872-14.888h0s.018,0,.018,0h30.312v.002c.006,0,.012-.002.019-.002,2.64,0,4.78,2.14,4.78,4.78s-2.14,4.78-4.78,4.78c-.04,0-.077-.011-.116-.012h-30.214v.011c-2.939,0-5.33,2.391-5.33,5.33s2.391,5.331,5.33,5.331Z"/></g></svg>