<?xml version="1.0" encoding="UTF-8"?><svg id="TEXT" xmlns="http://www.w3.org/2000/svg" viewBox="0 0 742.581 358.708"><defs><style>.cls-1{fill:#fff;}</style></defs><path class="cls-1" d="M371.447,319.785c16.822,0,30.26-5.221,40.312-15.664,10.051-10.441,15.078-24.908,15.078-43.398,0-18.645-5.066-33.203-15.195-43.672-10.131-10.469-23.633-15.703-40.508-15.703-9.325,0-17.553,1.512-24.688,4.531-5.365,2.24-10.301,5.678-14.805,10.312-4.506,4.637-8.061,9.871-10.664,15.703-3.49,7.918-5.234,17.709-5.234,29.375,0,18.23,5.025,32.539,15.078,42.93,10.051,10.391,23.594,15.586,40.625,15.586h0ZM348.322,230.918c5.832-6.535,13.516-9.805,23.047-9.805s17.174,3.23,22.93,9.688c5.754,6.459,8.633,16.25,8.633,29.375,0,13.281-2.957,23.242-8.867,29.883-5.912,6.641-13.477,9.961-22.695,9.961s-16.825-3.346-22.813-10.039c-5.99-6.691-8.984-16.523-8.984-29.492,0-13.176,2.916-23.033,8.75-29.57h0Z"/><path class="cls-1" d="M0,0v358.708h742.581V0H0ZM606.146,129.672l60.156-74.297h-53.359v-19.375h83.828v17.969l-62.734,77.266h65.156v19.297h-93.047v-20.859h0ZM546.244,115.888l23.082-15.703-23.082-16.289v-16.582l33.092,25.605,7.982,7.558-41.074,32.11v-16.699h0ZM426.369,129.672l60.156-74.297h-53.359v-19.375h83.828v17.969l-62.734,77.266h65.156v19.297h-93.047v-20.859h0ZM350.754,115.888l23.082-15.703-23.082-16.289v-16.582l33.092,25.605,7.982,7.558-41.074,32.11v-16.699h0ZM230.681,36h23.125v62.031c0,9.844.286,16.225.859,19.141.989,4.688,3.346,8.451,7.07,11.289,3.723,2.839,8.814,4.258,15.273,4.258,6.562,0,11.51-1.34,14.844-4.023,3.332-2.682,5.338-5.977,6.016-9.883.676-3.906,1.016-10.391,1.016-19.453v-63.359h23.125v60.156c0,13.75-.625,23.464-1.875,29.141-1.25,5.678-3.555,10.469-6.914,14.375-3.359,3.906-7.852,7.019-13.477,9.336s-12.969,3.477-22.031,3.477c-10.938,0-19.232-1.264-24.883-3.789-5.652-2.525-10.117-5.807-13.398-9.844-3.281-4.036-5.443-8.268-6.484-12.695-1.511-6.562-2.266-16.25-2.266-29.062v-61.096ZM156.619,115.888l23.083-15.703-23.083-16.289v-16.582l33.092,25.605,7.982,7.558-41.075,32.11v-16.699h.001ZM43.709,36h78.516v19.375h-55.391v27.109h47.812v19.375h-47.812v48.672h-23.125V36h0ZM726.723,342.007H15.859v-161.924h710.864v161.924h0Z"/><path class="cls-1" d="M66.834,274.629h15.078c10.469,0,18.463-.547,23.984-1.641,4.062-.885,8.059-2.695,11.992-5.43,3.932-2.734,7.174-6.496,9.727-11.289,2.551-4.791,3.828-10.703,3.828-17.734,0-9.113-2.214-16.549-6.641-22.305-4.428-5.754-9.922-9.492-16.484-11.211-4.271-1.145-13.438-1.719-27.5-1.719h-37.109v114.531h23.125v-43.203h0ZM66.834,222.676h11.172c8.333,0,13.879.262,16.641.781,3.75.678,6.848,2.371,9.297,5.078,2.447,2.709,3.672,6.146,3.672,10.312,0,3.387-.873,6.355-2.617,8.906-1.746,2.553-4.154,4.428-7.227,5.625-3.074,1.199-9.167,1.797-18.281,1.797h-12.656v-32.5h0Z"/><polygon class="cls-1" points="244.02 286.555 244.02 269.973 220.938 253.684 244.02 237.981 244.02 221.281 202.946 253.392 210.929 260.949 244.02 286.555"/><path class="cls-1" d="M637.34,274.629h15.078c10.469,0,18.463-.547,23.984-1.641,4.062-.885,8.059-2.695,11.992-5.43,3.932-2.734,7.174-6.496,9.727-11.289,2.551-4.791,3.828-10.703,3.828-17.734,0-9.113-2.215-16.549-6.641-22.305-4.428-5.754-9.922-9.492-16.484-11.211-4.271-1.145-13.438-1.719-27.5-1.719h-37.109v114.531h23.125v-43.203h0ZM637.34,222.676h11.172c8.332,0,13.879.262,16.641.781,3.75.678,6.848,2.371,9.297,5.078,2.447,2.709,3.672,6.146,3.672,10.312,0,3.387-.873,6.355-2.617,8.906-1.746,2.553-4.154,4.428-7.227,5.625-3.074,1.199-9.168,1.797-18.281,1.797h-12.656v-32.5h0Z"/><polygon class="cls-1" points="540.724 286.555 540.724 269.973 517.643 253.684 540.724 237.981 540.724 221.281 499.649 253.392 507.633 260.949 540.724 286.555"/></svg>