<?xml version="1.0" encoding="UTF-8"?><svg id="a" xmlns="http://www.w3.org/2000/svg" viewBox="0 0 6000.08 1358.504"><defs><style>.b{fill:#fff;}</style></defs><path class="b" d="M5947.412,518.653c-28.206-48.412-72.489-87.907-106.971-130.608-43.547-53.194-67.459-123.624-130.328-157.387-142.524-62.704-321.418-15.857-447.688,64.725-136.764,90.866-260.421,242.954-263.787,414.095v-.005s-.021,1.098-.021,1.098c-8.764,252.398,219.272,427.454,459.916,420.75,235.866-.104,509.662-146.12,539.762-398.37,8.016-74.421-11.317-150.446-50.883-214.298ZM5458.142,1005.644l.006-.005h-1.115c-139.833,3.141-295.765-81.488-327.71-224.028-25.63-124.92,45.496-257.609,141.562-335.88,153.264-122.581,384.336-66.394,514.121,64.807,239.638,251.915-58.587,498.626-326.864,495.106Z"/><path class="b" d="M5526.969,508.078c-4.36-27.915-28.217-49.384-57.274-45.024h-.006l-.884.104c-40.702,6.012-83.295,43.057-108.35,80.334-30.407,49.005-53.803,103.837-63.274,159.804-10.943,63.989,32.17,107.251,91.168,72.291,42.494-26.202,53.13-73.291,79.216-119.348,26.24-50.433,67.589-94.21,59.403-148.162Z"/><path class="b" d="M5635.088,556.891c-72.17,18.8-153.73,142.897-140.014,216.484,4.074,17.941,12.144,29.746,22.536,36.678,30.748,20.51,56.28,7.751,76.796-15.697,19.731-22.55,23.821-35.178,33.826-53.555,21.623-39.722,78.043-100.839,77.345-131.418l-.094-1.016c-2.268-38.402-34.525-61.623-70.396-51.476Z"/><path class="b" d="M4932.253,297.559c-39.672,4.228-79.296,27.245-113.208,49.605-91.37,62.92-181.243,127.112-272.99,190.799-37.05,24.082-84.04,61.132-128.699,48.559l-.011-.006-.706-.237c-53.182-21.211-62.836-110.719-78.882-160.793-26.782-100.798-58.522-199.875-100.323-295.588-23.54-51.035-62.695-132.69-126.596-129.825-54.678,11.588-42.245,94.575-26.709,139.546,65.402,165.647,126.571,334.256,151.875,511.442,14.696,94.575,20.736,191.438,7.288,286.433-5.725,41.704-15.926,82.665-29.35,122.824-16.131,50.682-47.202,128.53-17.853,173.129,13.985,19.416,37.921,20.888,59.733,11.399,43.328-19.24,70.207-65.822,88.706-108.292,25.779-60.737,39.995-126.589,49.636-191.937,5.529-38.449,16.009-88.9,34.489-108.414,44.429-48.164,114.502,25.633,154.861,63.869,39.569,39.97,78.048,81.029,113.627,124.649,31.527,37.865,59.678,74.843,96.619,98.505,37.141,23.839,74.793,22.002,88.084-18.887,8.656-28.717-.249-62.981-13.588-90.445-32.89-65.25-85.592-117.094-134.393-171.292-27.726-30.305-58.614-59.24-77.569-95.737-29.13-52.574,2.257-98.554,44.095-131.242,48.504-38.376,103.037-74.423,153.572-111.741,53.2-40.141,112.903-76.771,137.149-137.654,17.275-47.02-15.128-74.49-58.858-68.669Z"/><path class="b" d="M3254.038,499.816c-226.314,419.535,269.179,797.137,641.777,545.618,96.179-51.971,92.659-141.022-31.782-128.843-46.433,2.239-90.115,21.856-132.846,32.854-228.793,56.463-437.762-109.952-342.693-349.015,65.922-188.866,368.523-305.911,500.709-122.29,26.752,38.529,39.163,97.452-8.533,123.176-77.627,37.272-193.6-23.015-277.645-7.143-76.618,15.059-79.6,73.604-20.058,115.752,309.475,188.849,687.066-26.49,406.509-369.919-207.739-229.454-610.554-93.306-735.437,159.81Z"/><path class="b" d="M844.581,1083.368c-120.037-186.521-112.253-615.118-90.362-845.427,4.234-44.543-3.84-102.738-49.551-123.45-42.185-18.264-92.061,2.737-107.307,47.053-14.105,34.21-16.928,73.551-21.173,109.936-20.469,140.122-27.43,295.347-104.561,417.805-45.164,70.278-114.804-42.355-140.002-79.234-90.629-132.64-91.915-278.506-180.483-409.502-31.01-43.095-94.469-57.152-132.58-14.321C-3.53,211.803-1.655,248.476,2.848,280.648c37.656,219.079,102.381,436.399,84.052,660.654,2.154,64.973-28.235,192.468,15.711,238.94,36.948,40.732,109.759,27.978,129.959-23.109,24.689-120.906,12.95-247.861,21.1-370.788-2.238-82.86,2.017-65.518,36.055-5.554,92.959,180.955,198.967,208.889,292.891,43.611,13.724-24.15,23.491-5.631,28.3,16.117,27.222,123.101,35.494,255.303,104.523,363.831,27.779,40.184,70.608,78.773,122.1,78.064,56.591,1.6,93.667-61.892,69.286-112.26-15.298-32.51-44.045-56.161-62.143-86.617l-.101-.169Z"/><path class="b" d="M2777.017,964.76c-3.294-9.766-10.941-45.364-21.619-46.384-21.619-1.981-25.563,44.605-27.63,63.796-1.341,12.481-4.553,25.363-1.178,37.685,4.071,15.975,22.583,25.609,37.971,19.765,13.913-4.512,21.127-19.688,21.129-33.346l.006-.462c.051-4.222-.569-8.366-1.404-12.449-1.992-9.004-3.968-19.355-7.276-28.607Z"/><path class="b" d="M1175.678,209.897c-443.275,158.517-411.3,760.216,3.001,860.392-.928,6.453-2.111,12.877-3.774,19.226-9.554,39.736-39.764,81.708-30.227,120.022,9.233,32.228,50.631,37.045,63.027,4.13,8.534-22.699,2.71-48.399-2.73-71.347-6.179-24.084-11.775-46.541-16.029-69.672,36.804,8.041,76.515,12.202,119.102,11.81,8.729,81.256-62.642,189.608,4.271,263.952,62.056,37.78,96.616-38.815,81.701-92.317-7.134-62.156-23.714-115.432-23.961-171.294,126.108-9.396,407.865-65.568,352.94-220.472-26.444-74.581-160.803-28.257-223.802-9.032-816.603,249.193-458.179-852.458,94.909-412.465,79.272,63.062,222.373,137.995,177.229-30.828-80.3-228.949-390.993-289.459-595.655-202.103Z"/><path class="b" d="M3149.731,405.914c-44.289-216.678-283.012-339.989-492.329-310.818-112.689,13.907-220.357,66.418-302.213,145.087-147.321,137.342-184.348,350.004-129.366,539.254,42.007,149.532,128.031,288.047,235.096,400.631,34.015,35.65,92.658,77.814,123.239,85.515,50.444,15.486,48.345-25.036,23.497-72.194-28.53-57.363-87.449-125.675-129.345-182.445-35.683-48.381-67.133-100.062-92.143-154.714-82.184-174.403-102.523-428.432,78.228-543.972,124.355-77.038,308.171-58.251,424.536,26.98,119.512,87.501,91.214,258.735-33.711,327.597-113.984,62.517-232.209-9.33-336.752-57.146-41.57-17.258-99.074-41.307-111.449,2.214-10.157,67.192,60.088,150.443,116.434,186.427,265.97,169.782,699.232-52.348,626.385-391.918l-.106-.497Z"/></svg>